<svg width="34" height="30" viewBox="0 0 34 30" fill="none" xmlns="http://www.w3.org/2000/svg">
<path d="M33.7884 15.6484C33.7832 15.9106 33.7727 16.1715 33.7556 16.4324C33.7163 17.0351 33.6232 17.6364 33.4815 18.2231C33.3622 18.7158 33.21 19.1992 33.0264 19.6707C32.4493 21.1501 31.5889 22.4361 30.4544 23.5368C30.4085 23.5805 30.3678 23.6308 30.3114 23.6586C30.1947 23.5738 28.5146 21.8799 28.4346 21.7647C28.4726 21.7236 28.5106 21.6799 28.55 21.6375C29.2779 20.868 29.8432 19.9899 30.2432 19.0058C30.4255 18.5568 30.5829 18.0973 30.6931 17.6244C30.777 17.2629 30.8348 16.8947 30.882 16.5251C30.9305 16.149 30.9436 15.7715 30.9436 15.3954C30.9436 14.8722 30.903 14.3517 30.8229 13.8326C30.6747 12.875 30.3652 11.9704 29.9311 11.1095C29.6202 10.4923 29.2333 9.92279 28.7743 9.40493C28.6641 9.28043 28.5539 9.15594 28.4372 9.02349C28.4556 8.99833 28.4713 8.97184 28.4923 8.95065C29.0746 8.36392 29.6583 7.77586 30.2406 7.19046C30.259 7.17192 30.28 7.15602 30.3088 7.13086C30.4046 7.21297 30.4924 7.29774 30.5803 7.3825C30.9817 7.76527 31.3318 8.19571 31.6676 8.6341C31.9365 8.98376 32.1699 9.3599 32.3811 9.74796C32.7536 10.4301 33.0539 11.1439 33.2913 11.8856C33.6796 13.0988 33.812 14.3756 33.7884 15.6484Z" fill="#FFCD00"/>
<path d="M0.00228783 15.6484C0.0114689 16.1901 0.0495047 16.7318 0.115084 17.2708C0.117707 17.292 0.117707 17.3145 0.121642 17.3357C0.179351 17.6324 0.22788 17.9304 0.298705 18.2231C0.418059 18.7158 0.570202 19.1992 0.753823 19.6707C1.33092 21.1501 2.19132 22.4361 3.32583 23.5368C3.37174 23.5805 3.4124 23.6308 3.4688 23.6586C3.58553 23.5738 5.26566 21.8799 5.34567 21.7647C5.30763 21.7236 5.2696 21.6799 5.23025 21.6375C4.50232 20.868 3.93703 19.9899 3.537 19.0058C3.35469 18.5568 3.1973 18.0973 3.08713 17.6244C3.00318 17.2629 2.94547 16.8947 2.89826 16.5251C2.84973 16.149 2.83661 15.7715 2.83661 15.3954C2.83661 14.8722 2.87727 14.3517 2.95728 13.8326C3.10549 12.875 3.41502 11.9704 3.84915 11.1095C4.16 10.4923 4.54691 9.92279 5.00597 9.40493C5.11614 9.28043 5.22631 9.15594 5.34304 9.02349C5.32468 8.99833 5.30894 8.97184 5.28796 8.95065C4.70562 8.36392 4.12196 7.77586 3.53962 7.19046C3.52126 7.17192 3.50027 7.15602 3.47142 7.13086C3.37567 7.21297 3.2878 7.29774 3.19992 7.3825C2.79858 7.76527 2.44839 8.19571 2.11262 8.6341C1.84375 8.98376 1.61029 9.3599 1.39912 9.74796C1.02663 10.4301 0.72628 11.1439 0.488884 11.8856C0.372154 12.2498 0.272473 12.6194 0.212141 12.9982C0.208206 13.0246 0.204271 13.0511 0.197713 13.0776C0.0403237 13.7014 0.02065 14.3835 0.00491099 15.0246C-0.000335327 15.2312 -0.00164691 15.4391 0.00228783 15.6484Z" fill="#FFCD00"/>
<path d="M11.4946 24.8677C11.509 23.7022 11.5222 22.791 11.5313 21.8785C11.5353 21.4679 11.5327 21.0573 11.53 20.6481C11.5287 20.264 11.5104 19.8812 11.4658 19.5011C11.4487 19.362 11.4212 19.2243 11.3897 19.0879C11.349 18.9077 11.2546 18.7607 11.1064 18.6508C11.008 18.5766 10.9083 18.5038 10.81 18.4296C10.6093 18.2773 10.4008 18.1329 10.2093 17.9714C9.2505 17.1621 8.63275 16.1357 8.34026 14.9119C8.21173 14.3768 8.19599 13.8338 8.24976 13.2868C8.32453 12.5319 8.55405 11.822 8.85834 11.1333C8.95408 10.916 9.05114 10.7002 9.15476 10.4869C9.3528 10.075 9.37641 9.64722 9.27411 9.20751C9.23214 9.03003 9.17181 8.85521 9.12197 8.67906C9.09705 8.59164 9.0695 8.5029 9.05114 8.41417C9.00261 8.17577 9.06557 8.04994 9.2846 7.94399C9.43543 7.87114 9.59807 7.83406 9.76202 7.81419C9.98499 7.78638 10.208 7.76916 10.4322 7.74532C10.549 7.7334 10.6657 7.72016 10.7824 7.70294C10.9975 7.67248 11.193 7.59036 11.3766 7.47249C11.5799 7.34004 11.7674 7.18905 11.9301 7.00893C12.0455 6.88046 12.1438 6.74007 12.2173 6.58246C12.296 6.41293 12.3275 6.23545 12.317 6.04738C12.3025 5.7772 12.2409 5.51363 12.1963 5.24742C12.1806 5.15736 12.1661 5.06597 12.1543 4.97591C12.1478 4.92293 12.1478 4.86863 12.1478 4.81432C12.1504 4.54016 12.2803 4.32958 12.6186 4.28057C12.7446 4.26203 12.8744 4.25938 13.0016 4.266C13.3374 4.28455 13.6732 4.31501 14.0102 4.33355C14.2017 4.34415 14.3945 4.34415 14.5873 4.34282C14.7513 4.3415 14.9034 4.29382 15.0424 4.2064C15.3284 4.0276 15.5671 3.7998 15.7664 3.52696C15.9343 3.29651 15.9973 3.04354 15.9487 2.76276C15.9094 2.53496 15.8635 2.30715 15.8215 2.07935C15.8058 1.99458 15.7927 1.90982 15.7809 1.82373C15.7769 1.79194 15.7756 1.75883 15.7769 1.72704C15.7809 1.50454 15.8805 1.34428 16.0904 1.26614C16.1743 1.23435 16.2661 1.20919 16.354 1.20786C16.5731 1.20389 16.7921 1.20654 17.0111 1.22111C17.4164 1.24892 17.8217 1.28468 18.2256 1.32176C18.3765 1.33501 18.5129 1.30587 18.6349 1.21581C18.7595 1.1231 18.8854 1.03171 19.0073 0.935025C19.229 0.756225 19.4441 0.570803 19.6684 0.394651C19.7943 0.295318 19.9294 0.20658 20.0645 0.120491C20.1314 0.0781091 20.2074 0.0476469 20.2835 0.0224824C20.4265 -0.0238732 20.4842 0.0105624 20.5157 0.154927C20.534 0.238367 20.5445 0.32578 20.5485 0.411869C20.5563 0.578749 20.5537 0.746954 20.5589 0.913834C20.5655 1.12972 20.5681 1.3456 20.5839 1.56149C20.5917 1.67936 20.6193 1.79591 20.6455 1.91114C20.6704 2.01975 20.7426 2.08332 20.8527 2.11246C21.0285 2.16014 21.2016 2.21576 21.3734 2.27404C21.5571 2.33496 21.7302 2.41708 21.8902 2.52833C21.9925 2.59853 22.0869 2.67799 22.1656 2.77468C22.2601 2.88991 22.2719 2.98924 22.1906 3.11639C22.142 3.19188 22.0804 3.2634 22.0148 3.32432C21.9073 3.42101 21.7918 3.50975 21.679 3.59981C21.523 3.72298 21.3643 3.84218 21.2095 3.96668C20.7859 4.30706 20.6927 4.76267 20.774 5.27523C20.7819 5.32821 20.8029 5.37986 20.8239 5.42887C20.8567 5.50701 20.9144 5.55999 20.9983 5.5825C21.1531 5.62356 21.3092 5.66329 21.4613 5.71097C21.624 5.7613 21.7866 5.81428 21.9466 5.87653C22.0712 5.92553 22.184 6.00103 22.2758 6.10301C22.4004 6.24208 22.4161 6.35333 22.3191 6.51359C22.2666 6.59968 22.2024 6.68179 22.1302 6.75331C21.9964 6.88576 21.8535 7.00761 21.7144 7.13343C21.5505 7.28044 21.3852 7.42613 21.22 7.57182C20.8645 7.88571 20.6626 8.28967 20.5511 8.74528C20.5065 8.92938 20.4763 9.11612 20.4842 9.30552C20.4855 9.35982 20.4894 9.41412 20.4986 9.4671C20.517 9.581 20.576 9.66842 20.6822 9.71742C20.7937 9.76907 20.9078 9.81675 21.0219 9.86046C21.3669 9.99158 21.7158 10.1095 22.0581 10.2498C22.786 10.5465 23.4562 10.9465 24.0596 11.4564C24.9986 12.2498 25.5941 13.255 25.8761 14.4536C26.0007 14.9834 26.0374 15.5211 25.9981 16.0615C25.9377 16.8694 25.7043 17.627 25.3213 18.3382C25.1062 18.7382 24.8531 19.1117 24.5593 19.4574C23.7658 20.3924 22.9473 21.3037 22.0764 22.1672C21.3393 22.8983 20.5655 23.5857 19.7654 24.2453C18.4263 25.3472 17.0859 26.4452 15.7087 27.4968C14.9152 28.102 14.1152 28.698 13.2771 29.2397C12.9898 29.4265 12.6921 29.5973 12.3957 29.7682C12.2383 29.8596 12.073 29.9377 11.896 29.9828C11.8291 30 11.7596 30.0053 11.6914 30.0066C11.631 30.0079 11.5917 29.9708 11.5759 29.9126C11.5615 29.8609 11.5497 29.8079 11.5445 29.7536C11.53 29.5867 11.5156 29.4199 11.509 29.253C11.4749 28.4981 11.4763 27.7418 11.4815 26.9855C11.4776 26.1909 11.4894 25.4028 11.4946 24.8677ZM14.8995 24.0082C14.9283 24.0016 14.9611 24.0016 14.9874 23.9883C15.0634 23.9499 15.1395 23.9102 15.2116 23.8625C15.39 23.7446 15.5697 23.6267 15.7428 23.5009C16.6531 22.8453 17.5213 22.1367 18.3673 21.4004C19.1123 20.7514 19.835 20.0786 20.513 19.3581C20.8855 18.962 21.2423 18.5541 21.5584 18.1118C21.8758 17.6681 22.142 17.1952 22.3243 16.6787C22.5027 16.1701 22.5971 15.6496 22.5434 15.1053C22.4804 14.4576 22.2286 13.9013 21.7748 13.4378C21.0941 12.7425 20.2704 12.3319 19.3129 12.1955C19.2251 12.1822 19.1424 12.1902 19.0637 12.2312C18.9746 12.2789 18.8827 12.3253 18.7988 12.3809C18.6519 12.4776 18.505 12.5782 18.3634 12.6842C17.8623 13.0537 17.3849 13.4524 16.9101 13.855C16.5258 14.1821 16.1468 14.5159 15.794 14.8761C15.5867 15.088 15.3848 15.3026 15.2116 15.5437C15.1211 15.6695 15.0385 15.8032 14.9611 15.9383C14.8955 16.0522 14.8693 16.1767 14.8667 16.3105C14.8509 16.9039 14.826 17.4972 14.8142 18.0906C14.7854 19.472 14.7578 20.8534 14.7736 22.2348C14.7788 22.6506 14.7946 23.0652 14.809 23.4811C14.8129 23.5989 14.8273 23.7181 14.8431 23.836C14.8483 23.8916 14.8562 23.9512 14.8995 24.0082Z" fill="#FFCD00"/>
</svg>
