<svg width="212" height="19" viewBox="0 0 212 19" fill="none" xmlns="http://www.w3.org/2000/svg">
<path d="M12.0952 5.15116C11.5048 4.50836 10.9337 4.07924 10.38 3.86556C9.82804 3.65188 9.27086 3.54416 8.71194 3.54416C7.87879 3.54416 7.12599 3.6925 6.45178 3.99094C5.77758 4.28938 5.19944 4.70261 4.71562 5.23062C4.2318 5.75864 3.85627 6.37494 3.59078 7.07778C3.32529 7.78239 3.1943 8.53997 3.1943 9.35053C3.1943 10.2229 3.32704 11.0264 3.59078 11.761C3.85627 12.4956 4.23005 13.1314 4.71562 13.6665C5.19944 14.2033 5.77933 14.6236 6.45178 14.9291C7.12599 15.2346 7.87879 15.3882 8.71194 15.3882C9.36343 15.3882 9.99397 15.2311 10.607 14.9185C11.2201 14.6042 11.7913 14.1026 12.3222 13.4139L14.6837 15.1127C13.9571 16.1229 13.0716 16.8575 12.0271 17.3166C10.9826 17.7758 9.86996 18.0053 8.68923 18.0053C7.44737 18.0053 6.30856 17.8023 5.27106 17.3961C4.23355 16.9917 3.34101 16.4178 2.5917 15.6743C1.8424 14.9326 1.25553 14.0408 0.831092 13.0007C0.406659 11.9606 0.195312 10.8039 0.195312 9.53419C0.195312 8.2327 0.406659 7.05129 0.831092 5.9882C1.25553 4.92512 1.8424 4.01743 2.5917 3.26691C3.34101 2.51639 4.23355 1.93894 5.27106 1.53454C6.30856 1.12838 7.44737 0.925293 8.68923 0.925293C9.77913 0.925293 10.7887 1.11954 11.7197 1.50981C12.6506 1.90008 13.5169 2.56231 14.3204 3.49648L12.0952 5.15116Z" fill="#333333"/>
<path d="M20.7461 9.53597C20.7461 8.23448 20.9574 7.05308 21.3819 5.98999C21.8063 4.9269 22.3932 4.01922 23.1425 3.2687C23.8918 2.51818 24.7843 1.94072 25.8218 1.53632C26.8593 1.13016 27.9982 0.92708 29.24 0.92708C30.4959 0.912953 31.6469 1.09838 32.6914 1.48865C33.7359 1.87891 34.6372 2.44931 35.3935 3.19983C36.1498 3.95035 36.7401 4.85274 37.1646 5.90876C37.5872 6.96478 37.8003 8.14266 37.8003 9.44414C37.8003 10.7156 37.589 11.8705 37.1646 12.9107C36.7401 13.9508 36.1498 14.8461 35.3935 15.5966C34.6372 16.3472 33.7359 16.9317 32.6914 17.352C31.6469 17.7723 30.4959 17.9912 29.24 18.0071C27.9982 18.0071 26.8593 17.804 25.8218 17.3979C24.7843 16.9935 23.8918 16.4196 23.1425 15.6761C22.3932 14.9344 21.8063 14.0426 21.3819 13.0025C20.9574 11.9624 20.7461 10.8057 20.7461 9.53597ZM23.7433 9.35232C23.7433 10.2247 23.8761 11.0282 24.1398 11.7628C24.4053 12.4974 24.7791 13.1332 25.2647 13.6682C25.7485 14.2051 26.3284 14.6254 27.0008 14.9309C27.675 15.2364 28.4278 15.39 29.261 15.39C30.0941 15.39 30.8504 15.2364 31.5316 14.9309C32.2128 14.6254 32.7962 14.2033 33.28 13.6682C33.7638 13.1332 34.1394 12.4974 34.4048 11.7628C34.6686 11.0282 34.8013 10.2247 34.8013 9.35232C34.8013 8.54176 34.6686 7.78417 34.4048 7.07957C34.1394 6.37496 33.7656 5.76042 33.28 5.23241C32.7962 4.7044 32.2128 4.29117 31.5316 3.99273C30.8504 3.69429 30.0941 3.54595 29.261 3.54595C28.4278 3.54595 27.675 3.69429 27.0008 3.99273C26.3266 4.29117 25.7485 4.7044 25.2647 5.23241C24.7808 5.76042 24.4053 6.37673 24.1398 7.07957C23.8761 7.78417 23.7433 8.54176 23.7433 9.35232Z" fill="#333333"/>
<path d="M45.519 1.34033H49.311L57.0993 13.4157H57.1447V1.34033H60.0057V17.5939H56.3727L48.4255 5.12824H48.38V17.5939H45.519V1.34033Z" fill="#333333"/>
<path d="M79.6237 5.15116C79.0334 4.50836 78.4622 4.07924 77.9085 3.86556C77.3566 3.65188 76.7994 3.54416 76.2405 3.54416C75.4074 3.54416 74.6545 3.6925 73.9803 3.99094C73.3061 4.28938 72.728 4.70261 72.2442 5.23062C71.7604 5.75864 71.3848 6.37494 71.1193 7.07778C70.8539 7.78239 70.7229 8.53997 70.7229 9.35053C70.7229 10.2229 70.8556 11.0264 71.1193 11.761C71.3848 12.4956 71.7586 13.1314 72.2442 13.6665C72.728 14.2033 73.3079 14.6236 73.9803 14.9291C74.6545 15.2346 75.4074 15.3882 76.2405 15.3882C76.892 15.3882 77.5225 15.2311 78.1356 14.9185C78.7487 14.6042 79.3198 14.1026 79.8508 13.4139L82.2123 15.1127C81.4857 16.1229 80.6001 16.8575 79.5556 17.3166C78.5111 17.7758 77.3985 18.0053 76.2178 18.0053C74.9759 18.0053 73.8371 17.8023 72.7996 17.3961C71.7621 16.9917 70.8696 16.4178 70.1203 15.6743C69.371 14.9326 68.7841 14.0408 68.3597 13.0007C67.9352 11.9606 67.7239 10.8039 67.7239 9.53419C67.7239 8.2327 67.9352 7.05129 68.3597 5.9882C68.7841 4.92512 69.371 4.01743 70.1203 3.26691C70.8696 2.51639 71.7621 1.93894 72.7996 1.53454C73.8371 1.12838 74.9759 0.925293 76.2178 0.925293C77.3077 0.925293 78.3173 1.11954 79.2482 1.50981C80.1792 1.90008 81.0455 2.56231 81.849 3.49648L79.6237 5.15116Z" fill="#333333"/>
<path d="M89.1377 1.34033H91.9987V7.81422H99.5144V1.34033H102.375V17.5939H99.5144V10.4313H91.9987V17.5939H89.1377V1.34033Z" fill="#333333"/>
<path d="M116.158 1.34033H118.633L125.559 17.5939H122.289L120.79 13.8749H113.82L112.366 17.5939H109.165L116.158 1.34033ZM119.791 11.3955L117.316 4.78389L114.796 11.3955H119.791Z" fill="#333333"/>
<path d="M144.062 1.34033H146.924V14.9768H153.758V17.5939H144.062V1.34033Z" fill="#333333"/>
<path d="M166.042 1.34033H168.517L175.443 17.5939H172.173L170.674 13.8749H163.704L162.25 17.5939H159.049L166.042 1.34033ZM169.675 11.3955L167.2 4.78389L164.68 11.3955H169.675Z" fill="#333333"/>
<path d="M182.232 1.34033H188.499C189.103 1.34033 189.702 1.41274 190.293 1.55931C190.883 1.70411 191.409 1.94251 191.872 2.27098C192.333 2.6012 192.708 3.02503 192.995 3.54597C193.283 4.06692 193.426 4.69383 193.426 5.42845C193.426 6.34673 193.169 7.10431 192.654 7.7012C192.139 8.29808 191.466 8.7272 190.633 8.98679V9.0327C191.133 9.09451 191.597 9.23579 192.031 9.45829C192.462 9.6808 192.829 9.96335 193.131 10.3077C193.433 10.6521 193.672 11.0512 193.845 11.5015C194.02 11.9535 194.107 12.4392 194.107 12.9584C194.107 13.8466 193.933 14.5848 193.585 15.1728C193.238 15.7626 192.78 16.2359 192.212 16.5962C191.645 16.9564 190.993 17.2125 190.26 17.3661C189.526 17.5197 188.78 17.5957 188.024 17.5957H182.234V1.34033H182.232ZM185.093 7.95196H187.704C188.658 7.95196 189.374 7.76477 189.851 7.38863C190.328 7.01425 190.567 6.51979 190.567 5.90878C190.567 5.20418 190.321 4.6797 189.828 4.33534C189.336 3.99099 188.546 3.81969 187.456 3.81969H185.095V7.95196H185.093ZM185.093 15.1146H187.727C188.09 15.1146 188.48 15.0916 188.895 15.0457C189.311 14.9998 189.694 14.892 190.043 14.7243C190.391 14.5565 190.679 14.3146 190.906 14.002C191.133 13.6877 191.246 13.2639 191.246 12.7288C191.246 11.8723 190.97 11.2754 190.417 10.9381C189.865 10.6008 189.005 10.4331 187.84 10.4331H185.093V15.1146Z" fill="#333333"/>
<path d="M209.82 4.82976C209.518 4.38651 209.113 4.06158 208.604 3.85497C208.098 3.64835 207.563 3.54593 207.003 3.54593C206.669 3.54593 206.348 3.58478 206.039 3.66071C205.728 3.73665 205.448 3.86026 205.198 4.02803C204.949 4.19755 204.748 4.41476 204.598 4.68318C204.446 4.95161 204.371 5.26947 204.371 5.63502C204.371 6.18599 204.559 6.60628 204.938 6.89766C205.317 7.18903 205.785 7.44156 206.346 7.65524C206.907 7.86892 207.518 8.07553 208.185 8.27508C208.851 8.47463 209.464 8.75011 210.024 9.10153C210.585 9.45295 211.053 9.92092 211.432 10.5019C211.811 11.0829 212 11.8564 212 12.8206C212 13.6929 211.841 14.4541 211.523 15.1039C211.205 15.7555 210.777 16.2942 210.241 16.7233C209.703 17.1524 209.079 17.4738 208.367 17.6875C207.656 17.9011 206.907 18.0089 206.119 18.0089C205.12 18.0089 204.157 17.8411 203.235 17.5038C202.311 17.1665 201.517 16.6014 200.851 15.805L203.008 13.6929C203.356 14.228 203.815 14.6448 204.383 14.9432C204.95 15.2417 205.553 15.39 206.187 15.39C206.521 15.39 206.853 15.3441 207.186 15.2523C207.52 15.1604 207.822 15.0227 208.094 14.839C208.367 14.6554 208.587 14.4223 208.753 14.138C208.919 13.8554 209.003 13.5305 209.003 13.1632C209.003 12.5663 208.814 12.1071 208.435 11.7857C208.056 11.4643 207.588 11.1924 207.027 10.9699C206.467 10.7474 205.853 10.5372 205.188 10.3377C204.521 10.1399 203.908 9.86618 203.349 9.52182C202.788 9.17747 202.32 8.71833 201.941 8.1444C201.562 7.57048 201.373 6.8023 201.373 5.8381C201.373 4.99575 201.544 4.26996 201.885 3.65718C202.226 3.04617 202.671 2.53582 203.225 2.13142C203.777 1.72526 204.409 1.42328 205.12 1.22373C205.831 1.02595 206.557 0.925293 207.3 0.925293C208.147 0.925293 208.968 1.05597 209.762 1.31556C210.557 1.57515 211.273 2.00427 211.909 2.60116L209.82 4.82976Z" fill="#333333"/>
</svg>
